{
  "accessors": [
    {
      "bufferView": 2,
      "componentType": 5126,
      "count": 556,
      "max": [
        64.207992553710938,
        78.208580017089844,
        32.0643310546875
      ],
      "min": [
        -53.925075531005859,
        -12.172600746154785,
        30.256708145141602
      ],
      "type": "VEC3"
    },
    {
      "bufferView": 2,
      "byteOffset": 6672,
      "componentType": 5126,
      "count": 556,
      "max": [
        1,
        1,
        1
      ],
      "min": [
        -1,
        -1,
        -1
      ],
      "type": "VEC3"
    },
    {
      "bufferView": 3,
      "componentType": 5126,
      "count": 556,
      "max": [
        1,
        1,
        0,
        1
      ],
      "min": [
        -1,
        -1,
        0,
        1
      ],
      "type": "VEC4"
    },
    {
      "bufferView": 3,
      "byteOffset": 8896,
      "componentType": 5126,
      "count": 556,
      "max": [
        1,
        1,
        1,
        1
      ],
      "min": [
        1,
        1,
        1,
        1
      ],
      "type": "VEC4"
    },
    {
      "bufferView": 0,
      "componentType": 5125,
      "count": 1572,
      "max": [
        555
      ],
      "min": [
        0
      ],
      "type": "SCALAR"
    },
    {
      "bufferView": 2,
      "byteOffset": 13344,
      "componentType": 5126,
      "count": 724,
      "max": [
        40.338615417480469,
        63.702663421630859,
        29.924161911010742
      ],
      "min": [
        24.338611602783203,
        5.1252555847167969,
        0.042346477508544922
      ],
      "type": "VEC3"
    },
    {
      "bufferView": 2,
      "byteOffset": 22032,
      "componentType": 5126,
      "count": 724,
      "max": [
        1,
        1,
        1
      ],
      "min": [
        -1,
        -1,
        -1
      ],
      "type": "VEC3"
    },
    {
      "bufferView": 3,
      "byteOffset": 17792,
      "componentType": 5126,
      "count": 724,
      "max": [
        1,
        1,
        3.1985439363779733e-06,
        1
      ],
      "min": [
        -1,
        -1,
        -3.0457247248705244e-06,
        1
      ],
      "type": "VEC4"
    },
    {
      "bufferView": 3,
      "byteOffset": 29376,
      "componentType": 5126,
      "count": 724,
      "max": [
        1,
        1,
        1,
        1
      ],
      "min": [
        1,
        1,
        1,
        1
      ],
      "type": "VEC4"
    },
    {
      "bufferView": 1,
      "componentType": 5126,
      "count": 724,
      "max": [
        0.99950051307678223,
        0.99950045347213745
      ],
      "min": [
        0.00049948692321777344,
        0.00049948692321777344
      ],
      "type": "VEC2"
    },
    {
      "bufferView": 0,
      "byteOffset": 6288,
      "componentType": 5125,
      "count": 1644,
      "max": [
        723
      ],
      "min": [
        0
      ],
      "type": "SCALAR"
    },
    {
      "bufferView": 2,
      "byteOffset": 30720,
      "componentType": 5126,
      "count": 726,
      "max": [
        -13.544764518737793,
        63.702663421630859,
        29.924161911010742
      ],
      "min": [
        -29.544769287109375,
        5.1252555847167969,
        0.042346477508544922
      ],
      "type": "VEC3"
    },
    {
      "bufferView": 2,
      "byteOffset": 39432,
      "componentType": 5126,
      "count": 726,
      "max": [
        1,
        1,
        1
      ],
      "min": [
        -1,
        -1,
        -1
      ],
      "type": "VEC3"
    },
    {
      "bufferView": 3,
      "byteOffset": 40960,
      "componentType": 5126,
      "count": 726,
      "max": [
        1,
        1,
        3.2321972867066506e-06,
        1
      ],
      "min": [
        -1,
        -1,
        -3.478018243185943e-06,
        1
      ],
      "type": "VEC4"
    },
    {
      "bufferView": 3,
      "byteOffset": 52576,
      "componentType": 5126,
      "count": 726,
      "max": [
        1,
        1,
        1,
        1
      ],
      "min": [
        1,
        1,
        1,
        1
      ],
      "type": "VEC4"
    },
    {
      "bufferView": 1,
      "byteOffset": 5792,
      "componentType": 5126,
      "count": 726,
      "max": [
        0.99950063228607178,
        0.99950051307678223
      ],
      "min": [
        0.00049936771392822266,
        0.00049954652786254883
      ],
      "type": "VEC2"
    },
    {
      "bufferView": 0,
      "byteOffset": 12864,
      "componentType": 5125,
      "count": 1644,
      "max": [
        725
      ],
      "min": [
        0
      ],
      "type": "SCALAR"
    }
  ],
  "asset": {
    "extras": {
      "author": "James (https://sketchfab.com/james)",
      "license": "CC-BY-4.0 (http://creativecommons.org/licenses/by/4.0/)",
      "source": "https://sketchfab.com/models/b9482f337cb1404fa34247290ff0b30a",
      "title": "Table"
    },
    "generator": "Sketchfab-3.21.4",
    "version": "2.0"
  },
  "bufferViews": [
    {
      "buffer": 0,
      "byteLength": 19440,
      "byteOffset": 0,
      "name": "floatBufferViews",
      "target": 34963
    },
    {
      "buffer": 0,
      "byteLength": 11600,
      "byteOffset": 19440,
      "byteStride": 8,
      "name": "floatBufferViews",
      "target": 34962
    },
    {
      "buffer": 0,
      "byteLength": 48144,
      "byteOffset": 31040,
      "byteStride": 12,
      "name": "floatBufferViews",
      "target": 34962
    },
    {
      "buffer": 0,
      "byteLength": 64192,
      "byteOffset": 79184,
      "byteStride": 16,
      "name": "floatBufferViews",
      "target": 34962
    }
  ],
  "buffers": [
    {
      "byteLength": 143376,
      "uri": "scene.bin"
    }
  ],
  "images": [
    {
      "uri": "textures/wood01a_baseColor.jpeg"
    }
  ],
  "materials": [
    {
      "doubleSided": true,
      "emissiveFactor": [
        0,
        0,
        0
      ],
      "name": "wood01a",
      "pbrMetallicRoughness": {
        "baseColorFactor": [
          1,
          1,
          1,
          1
        ],
        "baseColorTexture": {
          "index": 0,
          "texCoord": 0
        },
        "metallicFactor": 0,
        "roughnessFactor": 0.59999999999999998
      }
    },
    {
      "alphaMode": "BLEND",
      "doubleSided": true,
      "emissiveFactor": [
        0,
        0,
        0
      ],
      "name": "glass_bra1_fros",
      "pbrMetallicRoughness": {
        "baseColorFactor": [
          1,
          1,
          1,
          0.10000000000000001
        ],
        "metallicFactor": 0,
        "roughnessFactor": 0.59999999999999998
      }
    }
  ],
  "meshes": [
    {
      "primitives": [
        {
          "attributes": {
            "COLOR_0": 3,
            "NORMAL": 1,
            "POSITION": 0,
            "TANGENT": 2
          },
          "indices": 4,
          "material": 1,
          "mode": 4
        }
      ]
    },
    {
      "primitives": [
        {
          "attributes": {
            "COLOR_0": 8,
            "NORMAL": 6,
            "POSITION": 5,
            "TANGENT": 7,
            "TEXCOORD_0": 9
          },
          "indices": 10,
          "material": 0,
          "mode": 4
        }
      ]
    },
    {
      "primitives": [
        {
          "attributes": {
            "COLOR_0": 14,
            "NORMAL": 12,
            "POSITION": 11,
            "TANGENT": 13,
            "TEXCOORD_0": 15
          },
          "indices": 16,
          "material": 0,
          "mode": 4
        }
      ]
    }
  ],
  "nodes": [
    {
      "children": [
        1
      ],
      "name": "RootNode (gltf orientation matrix)",
      "rotation": [
        -0.70710678118654746,
        -0,
        -0,
        0.70710678118654757
      ]
    },
    {
      "children": [
        2
      ],
      "name": "RootNode (model correction matrix)"
    },
    {
      "children": [
        3,
        6,
        9
      ],
      "name": "table1.3DS"
    },
    {
      "children": [
        4
      ],
      "matrix": [
        0.90381181240081787,
        0,
        0,
        0,
        0,
        0.90381181240081787,
        0,
        0,
        0,
        0,
        0.90381181240081787,
        0,
        5.1414604187011719,
        33.017990112304688,
        30.256708145141602,
        1
      ],
      "name": "Rectangle2"
    },
    {
      "children": [
        5
      ],
      "matrix": [
        1.1064250171102268,
        0,
        0,
        0,
        0,
        1.1064250171102268,
        0,
        0,
        0,
        0,
        1.1064250171102268,
        0,
        -5.6886404317329982,
        -36.531930274952011,
        -33.476778827187438,
        1
      ],
      "name": "3DSMeshMatrix"
    },
    {
      "mesh": 0,
      "name": ""
    },
    {
      "children": [
        7
      ],
      "matrix": [
        -1.7881393432617188e-07,
        0,
        -0.99999994039535522,
        -0,
        0,
        1,
        0,
        0,
        -0.99999994039535522,
        0,
        1.7881393432617188e-07,
        0,
        40.338611602783203,
        34.413959503173828,
        -3.4425926208496094,
        1
      ],
      "name": "Rectangle1"
    },
    {
      "children": [
        8
      ],
      "matrix": [
        -7.5497901264042884e-08,
        -0,
        -0.99999999999999423,
        0,
        0,
        0.99999999999999989,
        0,
        0,
        -0.99999999999999423,
        -0,
        7.5497901264042884e-08,
        0,
        -3.4425895753690736,
        -34.413959503173821,
        40.338611862691486,
        1
      ],
      "name": "3DSMeshMatrix"
    },
    {
      "mesh": 1,
      "name": ""
    },
    {
      "children": [
        10
      ],
      "matrix": [
        -1.7881393432617188e-07,
        0,
        -0.99999994039535522,
        -0,
        0,
        1,
        0,
        0,
        -0.99999994039535522,
        0,
        1.7881393432617188e-07,
        0,
        -13.544768333435059,
        34.413959503173828,
        -3.4425926208496094,
        1
      ],
      "name": "Rectangle0"
    },
    {
      "children": [
        11
      ],
      "matrix": [
        -7.5497901264042884e-08,
        -0,
        -0.99999999999999423,
        0,
        0,
        0.99999999999999989,
        0,
        0,
        -0.99999999999999423,
        -0,
        7.5497901264042884e-08,
        0,
        -3.4425936434511715,
        -34.413959503173821,
        -13.544768073526463,
        1
      ],
      "name": "3DSMeshMatrix"
    },
    {
      "mesh": 2,
      "name": ""
    }
  ],
  "samplers": [
    {
      "magFilter": 9729,
      "minFilter": 9987,
      "wrapS": 10497,
      "wrapT": 10497
    }
  ],
  "scene": 0,
  "scenes": [
    {
      "name": "OSG_Scene",
      "nodes": [
        0
      ]
    }
  ],
  "textures": [
    {
      "sampler": 0,
      "source": 0
    }
  ]
}

