{
  "accessors": [
    {
      "bufferView": 2,
      "componentType": 5126,
      "count": 78,
      "max": [
        0.6234700083732605,
        0.58174502849578857,
        2.2033751010894775
      ],
      "min": [
        0.48388299345970154,
        0.3649590015411377,
        2.0970869064331055
      ],
      "type": "VEC3"
    },
    {
      "bufferView": 2,
      "byteOffset": 936,
      "componentType": 5126,
      "count": 78,
      "max": [
        0.99834370613098145,
        0.93217170238494873,
        0.9740680456161499
      ],
      "min": [
        -0.99833083152770996,
        -0.9322846531867981,
        -0.99753177165985107
      ],
      "type": "VEC3"
    },
    {
      "bufferView": 3,
      "componentType": 5126,
      "count": 78,
      "max": [
        0.81949210166931152,
        0.99649256467819214,
        0.9336625337600708,
        1
      ],
      "min": [
        -0.75778913497924805,
        -0.99661630392074585,
        -0.9981236457824707,
        -1
      ],
      "type": "VEC4"
    },
    {
      "bufferView": 1,
      "componentType": 5126,
      "count": 78,
      "max": [
        0.32910001277923584,
        0.38989999890327454
      ],
      "min": [
        0.017999999225139618,
        0.34920001029968262
      ],
      "type": "VEC2"
    },
    {
      "bufferView": 0,
      "componentType": 5125,
      "count": 246,
      "max": [
        77
      ],
      "min": [
        0
      ],
      "type": "SCALAR"
    },
    {
      "bufferView": 2,
      "byteOffset": 1872,
      "componentType": 5126,
      "count": 10166,
      "max": [
        0.55300098657608032,
        0.82200002670288086,
        2.3866710662841797
      ],
      "min": [
        -0.49587199091911316,
        -1.1514929533004761,
        0.029937999323010445
      ],
      "type": "VEC3"
    },
    {
      "bufferView": 2,
      "byteOffset": 123864,
      "componentType": 5126,
      "count": 10166,
      "max": [
        1,
        1,
        1
      ],
      "min": [
        -1,
        -1,
        -1
      ],
      "type": "VEC3"
    },
    {
      "bufferView": 3,
      "byteOffset": 1248,
      "componentType": 5126,
      "count": 10166,
      "max": [
        0.99999624490737915,
        1,
        0.99940907955169678,
        1
      ],
      "min": [
        -1,
        -1,
        -0.99910920858383179,
        -1
      ],
      "type": "VEC4"
    },
    {
      "bufferView": 1,
      "byteOffset": 624,
      "componentType": 5126,
      "count": 10166,
      "max": [
        11.752300262451172,
        15.878899574279785
      ],
      "min": [
        -6.8856000900268555,
        -9.466099739074707
      ],
      "type": "VEC2"
    },
    {
      "bufferView": 0,
      "byteOffset": 984,
      "componentType": 5125,
      "count": 54768,
      "max": [
        10165
      ],
      "min": [
        0
      ],
      "type": "SCALAR"
    },
    {
      "bufferView": 2,
      "byteOffset": 245856,
      "componentType": 5126,
      "count": 3988,
      "max": [
        0.55734097957611084,
        0.12135700136423111,
        1.323591947555542
      ],
      "min": [
        -0.51087599992752075,
        -1.1581219434738159,
        0.13724300265312195
      ],
      "type": "VEC3"
    },
    {
      "bufferView": 2,
      "byteOffset": 293712,
      "componentType": 5126,
      "count": 3988,
      "max": [
        0.99999392032623291,
        1,
        1
      ],
      "min": [
        -0.99999392032623291,
        -1,
        -1
      ],
      "type": "VEC3"
    },
    {
      "bufferView": 3,
      "byteOffset": 163904,
      "componentType": 5126,
      "count": 3988,
      "max": [
        0.99999153614044189,
        1,
        0.99995839595794678,
        1
      ],
      "min": [
        -1,
        -0.99999988079071045,
        -0.99992990493774414,
        -1
      ],
      "type": "VEC4"
    },
    {
      "bufferView": 1,
      "byteOffset": 81952,
      "componentType": 5126,
      "count": 3988,
      "max": [
        4.0503997802734375,
        3.1986000537872314
      ],
      "min": [
        -2.2765998840332031,
        -3.38919997215271
      ],
      "type": "VEC2"
    },
    {
      "bufferView": 0,
      "byteOffset": 220056,
      "componentType": 5125,
      "count": 20352,
      "max": [
        3987
      ],
      "min": [
        0
      ],
      "type": "SCALAR"
    }
  ],
  "asset": {
    "extras": {
      "author": "Yaiyeondurising (https://sketchfab.com/5Life)",
      "license": "CC-BY-SA-4.0 (http://creativecommons.org/licenses/by-sa/4.0/)",
      "source": "https://sketchfab.com/3d-models/zenit-toilet-with-side-flush-lid-down-f6a2a80de6db45e29c1a0491cfe685fb",
      "title": "Zenit Toilet With Side Flush Lid Down"
    },
    "generator": "Sketchfab-6.76.0",
    "version": "2.0"
  },
  "bufferViews": [
    {
      "buffer": 0,
      "byteLength": 301464,
      "byteOffset": 0,
      "name": "floatBufferViews",
      "target": 34963
    },
    {
      "buffer": 0,
      "byteLength": 113856,
      "byteOffset": 301464,
      "byteStride": 8,
      "name": "floatBufferViews",
      "target": 34962
    },
    {
      "buffer": 0,
      "byteLength": 341568,
      "byteOffset": 415320,
      "byteStride": 12,
      "name": "floatBufferViews",
      "target": 34962
    },
    {
      "buffer": 0,
      "byteLength": 227712,
      "byteOffset": 756888,
      "byteStride": 16,
      "name": "floatBufferViews",
      "target": 34962
    }
  ],
  "buffers": [
    {
      "byteLength": 984600,
      "uri": "scene.bin"
    }
  ],
  "materials": [
    {
      "doubleSided": true,
      "name": "08___Default.001",
      "pbrMetallicRoughness": {
        "baseColorFactor": [
          1,
          1,
          1,
          1
        ],
        "metallicFactor": 0,
        "roughnessFactor": 0
      }
    },
    {
      "doubleSided": true,
      "name": "12___Default.002",
      "pbrMetallicRoughness": {
        "baseColorFactor": [
          1,
          1,
          1,
          1
        ],
        "metallicFactor": 0,
        "roughnessFactor": 0.59999999999999998
      }
    }
  ],
  "meshes": [
    {
      "primitives": [
        {
          "attributes": {
            "NORMAL": 1,
            "POSITION": 0,
            "TANGENT": 2,
            "TEXCOORD_0": 3
          },
          "indices": 4,
          "material": 1,
          "mode": 4
        }
      ]
    },
    {
      "primitives": [
        {
          "attributes": {
            "NORMAL": 6,
            "POSITION": 5,
            "TANGENT": 7,
            "TEXCOORD_0": 8
          },
          "indices": 9,
          "material": 0,
          "mode": 4
        }
      ]
    },
    {
      "primitives": [
        {
          "attributes": {
            "NORMAL": 11,
            "POSITION": 10,
            "TANGENT": 12,
            "TEXCOORD_0": 13
          },
          "indices": 14,
          "material": 0,
          "mode": 4
        }
      ]
    }
  ],
  "nodes": [
    {
      "children": [
        1
      ],
      "name": "RootNode (gltf orientation matrix)",
      "rotation": [
        -0.70710678118654746,
        -0,
        -0,
        0.70710678118654757
      ]
    },
    {
      "children": [
        2
      ],
      "name": "RootNode (model correction matrix)"
    },
    {
      "children": [
        3,
        4,
        5
      ],
      "name": "toilet with side flush lid down.obj.cleaner.materialmerger.gles"
    },
    {
      "mesh": 0,
      "name": ""
    },
    {
      "mesh": 1,
      "name": ""
    },
    {
      "mesh": 2,
      "name": ""
    }
  ],
  "scene": 0,
  "scenes": [
    {
      "name": "OSG_Scene",
      "nodes": [
        0
      ]
    }
  ]
}

