{
  "accessors": [
    {
      "bufferView": 2,
      "componentType": 5126,
      "count": 301,
      "max": [
        92.895034790039062,
        0.94436740875244141,
        -38.946182250976562
      ],
      "min": [
        39.088001251220703,
        -1.9715971946716309,
        -101.30200958251953
      ],
      "type": "VEC3"
    },
    {
      "bufferView": 2,
      "byteOffset": 3612,
      "componentType": 5126,
      "count": 301,
      "max": [
        1,
        1,
        1
      ],
      "min": [
        -1,
        -1,
        -1
      ],
      "type": "VEC3"
    },
    {
      "bufferView": 1,
      "componentType": 5126,
      "count": 301,
      "max": [
        0.33515727519989014,
        0.98545485734939575
      ],
      "min": [
        0.016524774953722954,
        0.12941844761371613
      ],
      "type": "VEC2"
    },
    {
      "bufferView": 1,
      "byteOffset": 2408,
      "componentType": 5126,
      "count": 301,
      "max": [
        0.33515727519989014,
        0.98545485734939575
      ],
      "min": [
        0.016524774953722954,
        0.12941844761371613
      ],
      "type": "VEC2"
    },
    {
      "bufferView": 0,
      "componentType": 5125,
      "count": 588,
      "max": [
        300
      ],
      "min": [
        0
      ],
      "type": "SCALAR"
    },
    {
      "bufferView": 2,
      "byteOffset": 7224,
      "componentType": 5126,
      "count": 160,
      "max": [
        33.524631500244141,
        0.94435787200927734,
        33.524631500244141
      ],
      "min": [
        -33.524631500244141,
        -2.042938232421875,
        -33.524631500244141
      ],
      "type": "VEC3"
    },
    {
      "bufferView": 2,
      "byteOffset": 9144,
      "componentType": 5126,
      "count": 160,
      "max": [
        1,
        1,
        1
      ],
      "min": [
        -1,
        -1,
        -1
      ],
      "type": "VEC3"
    },
    {
      "bufferView": 1,
      "byteOffset": 4816,
      "componentType": 5126,
      "count": 160,
      "max": [
        0.57379043102264404,
        0.61282175779342651
      ],
      "min": [
        0.011222642846405506,
        0.011827773414552212
      ],
      "type": "VEC2"
    },
    {
      "bufferView": 1,
      "byteOffset": 6096,
      "componentType": 5126,
      "count": 160,
      "max": [
        0.57379043102264404,
        0.61282175779342651
      ],
      "min": [
        0.011222642846405506,
        0.011827773414552212
      ],
      "type": "VEC2"
    },
    {
      "bufferView": 0,
      "byteOffset": 2352,
      "componentType": 5125,
      "count": 252,
      "max": [
        159
      ],
      "min": [
        0
      ],
      "type": "SCALAR"
    },
    {
      "bufferView": 2,
      "byteOffset": 11064,
      "componentType": 5126,
      "count": 404,
      "max": [
        87.564620971679688,
        0.94435662031173706,
        25.064598083496094
      ],
      "min": [
        44.418418884277344,
        -2.0317518711090088,
        -19.288480758666992
      ],
      "type": "VEC3"
    },
    {
      "bufferView": 2,
      "byteOffset": 15912,
      "componentType": 5126,
      "count": 404,
      "max": [
        1,
        1,
        1
      ],
      "min": [
        -1,
        -1,
        -1
      ],
      "type": "VEC3"
    },
    {
      "bufferView": 1,
      "byteOffset": 7376,
      "componentType": 5126,
      "count": 404,
      "max": [
        0.62157136201858521,
        0.93731397390365601
      ],
      "min": [
        0.31463360786437988,
        0.14056301116943359
      ],
      "type": "VEC2"
    },
    {
      "bufferView": 1,
      "byteOffset": 10608,
      "componentType": 5126,
      "count": 404,
      "max": [
        0.62157136201858521,
        0.93731397390365601
      ],
      "min": [
        0.31463360786437988,
        0.14056301116943359
      ],
      "type": "VEC2"
    },
    {
      "bufferView": 0,
      "byteOffset": 3360,
      "componentType": 5125,
      "count": 1092,
      "max": [
        403
      ],
      "min": [
        0
      ],
      "type": "SCALAR"
    },
    {
      "bufferView": 2,
      "byteOffset": 20760,
      "componentType": 5126,
      "count": 236,
      "max": [
        203.68325805664062,
        0.94436943531036377,
        38.689655303955078
      ],
      "min": [
        98.701080322265625,
        -1.9823787212371826,
        -107.93565368652344
      ],
      "type": "VEC3"
    },
    {
      "bufferView": 2,
      "byteOffset": 23592,
      "componentType": 5126,
      "count": 236,
      "max": [
        1,
        1,
        1
      ],
      "min": [
        -1,
        -1,
        -1
      ],
      "type": "VEC3"
    },
    {
      "bufferView": 1,
      "byteOffset": 13840,
      "componentType": 5126,
      "count": 236,
      "max": [
        0.99133455753326416,
        0.56802314519882202
      ],
      "min": [
        0.12898340821266174,
        0.010219200514256954
      ],
      "type": "VEC2"
    },
    {
      "bufferView": 1,
      "byteOffset": 15728,
      "componentType": 5126,
      "count": 236,
      "max": [
        0.99133455753326416,
        0.56802314519882202
      ],
      "min": [
        0.12898340821266174,
        0.010219200514256954
      ],
      "type": "VEC2"
    },
    {
      "bufferView": 0,
      "byteOffset": 7728,
      "componentType": 5125,
      "count": 396,
      "max": [
        235
      ],
      "min": [
        0
      ],
      "type": "SCALAR"
    },
    {
      "bufferView": 2,
      "byteOffset": 26424,
      "componentType": 5126,
      "count": 280,
      "max": [
        33.526226043701172,
        0.94436800479888916,
        -36.599468231201172
      ],
      "min": [
        -33.524669647216797,
        -2.0316240787506104,
        -103.64871978759766
      ],
      "type": "VEC3"
    },
    {
      "bufferView": 2,
      "byteOffset": 29784,
      "componentType": 5126,
      "count": 280,
      "max": [
        1,
        1,
        1
      ],
      "min": [
        -1,
        -1,
        -1
      ],
      "type": "VEC3"
    },
    {
      "bufferView": 1,
      "byteOffset": 17616,
      "componentType": 5126,
      "count": 280,
      "max": [
        0.99179679155349731,
        0.97247099876403809
      ],
      "min": [
        0.31379848718643188,
        0.010692714713513851
      ],
      "type": "VEC2"
    },
    {
      "bufferView": 1,
      "byteOffset": 19856,
      "componentType": 5126,
      "count": 280,
      "max": [
        0.99179679155349731,
        0.97247099876403809
      ],
      "min": [
        0.31379848718643188,
        0.010692714713513851
      ],
      "type": "VEC2"
    },
    {
      "bufferView": 0,
      "byteOffset": 9312,
      "componentType": 5125,
      "count": 588,
      "max": [
        279
      ],
      "min": [
        0
      ],
      "type": "SCALAR"
    }
  ],
  "asset": {
    "extras": {
      "author": "Misam Ali Rizvi (https://sketchfab.com/MisamAliRizvi)",
      "license": "CC-BY-4.0 (http://creativecommons.org/licenses/by/4.0/)",
      "source": "https://sketchfab.com/3d-models/frames-version-02-3f6b02f1678f4f68ac765537f5e520e7",
      "title": "Frames Version 02"
    },
    "generator": "Sketchfab-8.33.0",
    "version": "2.0"
  },
  "bufferViews": [
    {
      "buffer": 0,
      "byteLength": 11664,
      "byteOffset": 0,
      "name": "floatBufferViews",
      "target": 34963
    },
    {
      "buffer": 0,
      "byteLength": 22096,
      "byteOffset": 11664,
      "byteStride": 8,
      "name": "floatBufferViews",
      "target": 34962
    },
    {
      "buffer": 0,
      "byteLength": 33144,
      "byteOffset": 33760,
      "byteStride": 12,
      "name": "floatBufferViews",
      "target": 34962
    }
  ],
  "buffers": [
    {
      "byteLength": 66904,
      "uri": "scene.bin"
    }
  ],
  "extensionsRequired": [
    "KHR_materials_pbrSpecularGlossiness"
  ],
  "extensionsUsed": [
    "KHR_materials_pbrSpecularGlossiness"
  ],
  "images": [
    {
      "uri": "textures/Frame_Version_02_diffuse.jpeg"
    },
    {
      "uri": "textures/Frame_Version_02_specularGlossiness.png"
    }
  ],
  "materials": [
    {
      "doubleSided": true,
      "extensions": {
        "KHR_materials_pbrSpecularGlossiness": {
          "diffuseFactor": [
            1,
            1,
            1,
            1
          ],
          "diffuseTexture": {
            "index": 0,
            "texCoord": 0
          },
          "glossinessFactor": 1,
          "specularFactor": [
            0.79821273309863872,
            0.79821273309863872,
            0.79821273309863872
          ],
          "specularGlossinessTexture": {
            "index": 1,
            "texCoord": 0
          }
        }
      },
      "name": "Frame_Version_02"
    }
  ],
  "meshes": [
    {
      "name": "Frame_04_Frame_Version_02_0",
      "primitives": [
        {
          "attributes": {
            "NORMAL": 1,
            "POSITION": 0,
            "TEXCOORD_0": 2,
            "TEXCOORD_1": 3
          },
          "indices": 4,
          "material": 0,
          "mode": 4
        }
      ]
    },
    {
      "name": "Frame_01_Frame_Version_02_0",
      "primitives": [
        {
          "attributes": {
            "NORMAL": 6,
            "POSITION": 5,
            "TEXCOORD_0": 7,
            "TEXCOORD_1": 8
          },
          "indices": 9,
          "material": 0,
          "mode": 4
        }
      ]
    },
    {
      "name": "Frame_02_Frame_Version_02_0",
      "primitives": [
        {
          "attributes": {
            "NORMAL": 11,
            "POSITION": 10,
            "TEXCOORD_0": 12,
            "TEXCOORD_1": 13
          },
          "indices": 14,
          "material": 0,
          "mode": 4
        }
      ]
    },
    {
      "name": "Frame_05_Frame_Version_02_0",
      "primitives": [
        {
          "attributes": {
            "NORMAL": 16,
            "POSITION": 15,
            "TEXCOORD_0": 17,
            "TEXCOORD_1": 18
          },
          "indices": 19,
          "material": 0,
          "mode": 4
        }
      ]
    },
    {
      "name": "Frame_03_Frame_Version_02_0",
      "primitives": [
        {
          "attributes": {
            "NORMAL": 21,
            "POSITION": 20,
            "TEXCOORD_0": 22,
            "TEXCOORD_1": 23
          },
          "indices": 24,
          "material": 0,
          "mode": 4
        }
      ]
    }
  ],
  "nodes": [
    {
      "children": [
        1
      ],
      "name": "RootNode (gltf orientation matrix)",
      "rotation": [
        -0.70710678118654746,
        -0,
        -0,
        0.70710678118654757
      ]
    },
    {
      "children": [
        2
      ],
      "matrix": [
        1,
        -2.770065955897755e-32,
        1.6081226229577292e-16,
        0,
        1.7853747624282703e-32,
        -1,
        -2.832769343193999e-16,
        0,
        1.6081226229577292e-16,
        2.832769343193999e-16,
        -1,
        0,
        -1.1768364061026659e-14,
        2.9873116016387939,
        146.62591552734375,
        1
      ],
      "name": "RootNode (model correction matrix)"
    },
    {
      "children": [
        3
      ],
      "matrix": [
        1,
        0,
        0,
        0,
        0,
        -1,
        0,
        0,
        0,
        0,
        -1,
        0,
        0,
        0,
        0,
        1
      ],
      "name": "a433add172ef44449be804cba337892b.fbx"
    },
    {
      "children": [
        4
      ],
      "name": "RootNode"
    },
    {
      "children": [
        5,
        8,
        11,
        14,
        17
      ],
      "matrix": [
        1,
        0,
        0,
        0,
        0,
        -4.3711388064693324e-08,
        0.999999999999999,
        0,
        0,
        -0.999999999999999,
        -4.3711388064693324e-08,
        0,
        0,
        0,
        0,
        1
      ],
      "name": "Frame_Version_02"
    },
    {
      "children": [
        6
      ],
      "matrix": [
        1,
        0,
        0,
        0,
        -0,
        -1.6292068472090193e-07,
        -0.99999999999998679,
        0,
        0,
        0.99999999999998679,
        -1.6292068472090193e-07,
        0,
        -19.871330261230469,
        -79.429275512695312,
        1.5275340047082864e-05,
        1
      ],
      "name": "Frame_04"
    },
    {
      "children": [
        7
      ],
      "matrix": [
        1,
        0,
        -0,
        0,
        0,
        1,
        0,
        0,
        0,
        0,
        1,
        0,
        -65.99151611328125,
        -0.94435739517211914,
        40.739639282226562,
        1
      ],
      "name": ""
    },
    {
      "mesh": 0,
      "name": "Frame_04_Frame_Version_02_0"
    },
    {
      "children": [
        9
      ],
      "matrix": [
        1,
        0,
        0,
        0,
        -0,
        -1.6292068472090193e-07,
        -0.99999999999998679,
        0,
        0,
        0.99999999999998679,
        -1.6292068472090193e-07,
        0,
        -85.862846374511719,
        -5.9622387886047363,
        3.0534130928572267e-05,
        1
      ],
      "name": "Frame_01"
    },
    {
      "children": [
        10
      ],
      "matrix": [
        1,
        0,
        -0,
        0,
        0,
        1,
        0,
        0,
        0,
        0,
        1,
        0,
        0,
        -0.94434702396392822,
        -32.7274169921875,
        1
      ],
      "name": ""
    },
    {
      "mesh": 1,
      "name": "Frame_01_Frame_Version_02_0"
    },
    {
      "children": [
        12
      ],
      "matrix": [
        1,
        0,
        0,
        0,
        -0,
        -1.6292068472090193e-07,
        -0.99999999999998679,
        0,
        0,
        0.99999999999998679,
        -1.6292068472090193e-07,
        0,
        -19.871330261230469,
        -16.90202522277832,
        1.5275340047082864e-05,
        1
      ],
      "name": "Frame_02"
    },
    {
      "children": [
        13
      ],
      "matrix": [
        1,
        0,
        -0,
        0,
        0,
        1,
        0,
        0,
        0,
        0,
        1,
        0,
        -65.99151611328125,
        -0.94434952735900879,
        -21.787628173828125,
        1
      ],
      "name": ""
    },
    {
      "mesh": 2,
      "name": "Frame_02_Frame_Version_02_0"
    },
    {
      "children": [
        15
      ],
      "matrix": [
        1,
        0,
        0,
        0,
        0,
        -1.6292068472090193e-07,
        -0.99999999999998679,
        0,
        0,
        0.99999999999998679,
        -1.6292068472090193e-07,
        0,
        65.329322814941406,
        -1.4252525568008423,
        1.6551680914744793e-08,
        1
      ],
      "name": "Frame_05"
    },
    {
      "children": [
        16
      ],
      "matrix": [
        1,
        0,
        -0,
        0,
        0,
        1,
        0,
        0,
        0,
        0,
        1,
        0,
        -151.19216918945312,
        -0.94434571266174316,
        -37.264404296875,
        1
      ],
      "name": ""
    },
    {
      "mesh": 3,
      "name": "Frame_05_Frame_Version_02_0"
    },
    {
      "children": [
        18
      ],
      "matrix": [
        1,
        0,
        0,
        0,
        -0,
        -1.6292068472090193e-07,
        -0.99999999999998679,
        0,
        0,
        0.99999999999998679,
        -1.6292068472090193e-07,
        0,
        -85.862068176269531,
        -77.28662109375,
        1.5275340047082864e-05,
        1
      ],
      "name": "Frame_03"
    },
    {
      "children": [
        19
      ],
      "matrix": [
        1,
        0,
        -0,
        0,
        0,
        1,
        0,
        0,
        0,
        0,
        1,
        0,
        -0.0007781982421875,
        -0.94435709714889526,
        38.59698486328125,
        1
      ],
      "name": ""
    },
    {
      "mesh": 4,
      "name": "Frame_03_Frame_Version_02_0"
    }
  ],
  "samplers": [
    {
      "magFilter": 9729,
      "minFilter": 9987,
      "wrapS": 10497,
      "wrapT": 10497
    }
  ],
  "scene": 0,
  "scenes": [
    {
      "name": "OSG_Scene",
      "nodes": [
        0
      ]
    }
  ],
  "textures": [
    {
      "sampler": 0,
      "source": 0
    },
    {
      "sampler": 0,
      "source": 1
    }
  ]
}

