{
  "accessors": [
    {
      "bufferView": 2,
      "componentType": 5126,
      "count": 31310,
      "max": [
        1.1171445846557617,
        0.99359530210494995,
        1.0000003576278687
      ],
      "min": [
        -0.99359524250030518,
        -1.5127849578857422,
        -1.0000002384185791
      ],
      "type": "VEC3"
    },
    {
      "bufferView": 2,
      "byteOffset": 375720,
      "componentType": 5126,
      "count": 31310,
      "max": [
        0.99999964237213135,
        1,
        1
      ],
      "min": [
        -1,
        -1,
        -1
      ],
      "type": "VEC3"
    },
    {
      "bufferView": 1,
      "componentType": 5126,
      "count": 31310,
      "max": [
        1.0000001192092896,
        0.99866747856140137
      ],
      "min": [
        0.00045737382606603205,
        0
      ],
      "type": "VEC2"
    },
    {
      "bufferView": 0,
      "componentType": 5125,
      "count": 175899,
      "max": [
        31309
      ],
      "min": [
        0
      ],
      "type": "SCALAR"
    },
    {
      "bufferView": 2,
      "byteOffset": 751440,
      "componentType": 5126,
      "count": 6974,
      "max": [
        0.3801112174987793,
        0.37872910499572754,
        0.99973183870315552
      ],
      "min": [
        -0.3787289559841156,
        -0.37872901558876038,
        -0.99973189830780029
      ],
      "type": "VEC3"
    },
    {
      "bufferView": 2,
      "byteOffset": 835128,
      "componentType": 5126,
      "count": 6974,
      "max": [
        1,
        1,
        0.93299674987792969
      ],
      "min": [
        -0.99999892711639404,
        -1,
        -0.93296205997467041
      ],
      "type": "VEC3"
    },
    {
      "bufferView": 1,
      "byteOffset": 250480,
      "componentType": 5126,
      "count": 6974,
      "max": [
        0.83286857604980469,
        0.82779389619827271
      ],
      "min": [
        0.13410426676273346,
        0.43246161937713623
      ],
      "type": "VEC2"
    },
    {
      "bufferView": 0,
      "byteOffset": 703596,
      "componentType": 5125,
      "count": 39168,
      "max": [
        6973
      ],
      "min": [
        0
      ],
      "type": "SCALAR"
    },
    {
      "bufferView": 2,
      "byteOffset": 918816,
      "componentType": 5126,
      "count": 34506,
      "max": [
        0.99359524250030518,
        7.1438722610473633,
        1.2477911710739136
      ],
      "min": [
        -8.6378059387207031,
        -0.99359524250030518,
        -0.66265130043029785
      ],
      "type": "VEC3"
    },
    {
      "bufferView": 2,
      "byteOffset": 1332888,
      "componentType": 5126,
      "count": 34506,
      "max": [
        1,
        1,
        0.9999997615814209
      ],
      "min": [
        -1,
        -1,
        -1
      ],
      "type": "VEC3"
    },
    {
      "bufferView": 1,
      "byteOffset": 306272,
      "componentType": 5126,
      "count": 34506,
      "max": [
        1.0000001192092896,
        1.0000001192092896
      ],
      "min": [
        0.00031715069781057537,
        0.0095227770507335663
      ],
      "type": "VEC2"
    },
    {
      "bufferView": 0,
      "byteOffset": 860268,
      "componentType": 5125,
      "count": 190464,
      "max": [
        34505
      ],
      "min": [
        0
      ],
      "type": "SCALAR"
    },
    {
      "bufferView": 2,
      "byteOffset": 1746960,
      "componentType": 5126,
      "count": 18925,
      "max": [
        1.365314245223999,
        1.365314245223999,
        0.45745599269866943
      ],
      "min": [
        -1.3653143644332886,
        -1.3653143644332886,
        -0.72374558448791504
      ],
      "type": "VEC3"
    },
    {
      "bufferView": 2,
      "byteOffset": 1974060,
      "componentType": 5126,
      "count": 18925,
      "max": [
        1,
        1,
        1
      ],
      "min": [
        -1,
        -1,
        -1
      ],
      "type": "VEC3"
    },
    {
      "bufferView": 1,
      "byteOffset": 582320,
      "componentType": 5126,
      "count": 18925,
      "max": [
        0.99822497367858887,
        1.0000001192092896
      ],
      "min": [
        0,
        0.0017756710294634104
      ],
      "type": "VEC2"
    },
    {
      "bufferView": 0,
      "byteOffset": 1622124,
      "componentType": 5125,
      "count": 104448,
      "max": [
        18924
      ],
      "min": [
        0
      ],
      "type": "SCALAR"
    }
  ],
  "asset": {
    "extras": {
      "author": "Ali107_YT (https://sketchfab.com/Ali_Army107)",
      "license": "CC-BY-4.0 (http://creativecommons.org/licenses/by/4.0/)",
      "source": "https://sketchfab.com/3d-models/toilet-paper-holder-43221ead48364d41977ee4e7ebbfcc04",
      "title": "Toilet Paper + Holder"
    },
    "generator": "Sketchfab-8.47.0",
    "version": "2.0"
  },
  "bufferViews": [
    {
      "buffer": 0,
      "byteLength": 2039916,
      "byteOffset": 0,
      "name": "floatBufferViews",
      "target": 34963
    },
    {
      "buffer": 0,
      "byteLength": 733720,
      "byteOffset": 2039916,
      "byteStride": 8,
      "name": "floatBufferViews",
      "target": 34962
    },
    {
      "buffer": 0,
      "byteLength": 2201160,
      "byteOffset": 2773636,
      "byteStride": 12,
      "name": "floatBufferViews",
      "target": 34962
    }
  ],
  "buffers": [
    {
      "byteLength": 4974796,
      "uri": "scene.bin"
    }
  ],
  "images": [
    {
      "uri": "textures/Material.003_baseColor.png"
    }
  ],
  "materials": [
    {
      "doubleSided": true,
      "emissiveFactor": [
        0,
        0,
        0
      ],
      "name": "Material.004",
      "pbrMetallicRoughness": {
        "baseColorFactor": [
          0.80000000000000004,
          0.80000000000000004,
          0.80000000000000004,
          1
        ],
        "metallicFactor": 0,
        "roughnessFactor": 1
      }
    },
    {
      "doubleSided": true,
      "emissiveFactor": [
        0,
        0,
        0
      ],
      "name": "Material.005",
      "pbrMetallicRoughness": {
        "baseColorFactor": [
          0.011750637479589597,
          0.0084623896853948406,
          0.0048672315262164208,
          1
        ],
        "metallicFactor": 0,
        "roughnessFactor": 1
      }
    },
    {
      "doubleSided": true,
      "emissiveFactor": [
        0,
        0,
        0
      ],
      "name": "Material.003",
      "pbrMetallicRoughness": {
        "baseColorFactor": [
          1,
          1,
          1,
          1
        ],
        "baseColorTexture": {
          "index": 0,
          "texCoord": 0
        },
        "metallicFactor": 1,
        "roughnessFactor": 0.25
      }
    },
    {
      "doubleSided": true,
      "emissiveFactor": [
        0,
        0,
        0
      ],
      "name": "Material.002",
      "pbrMetallicRoughness": {
        "baseColorFactor": [
          1,
          1,
          1,
          1
        ],
        "baseColorTexture": {
          "index": 0,
          "texCoord": 0
        },
        "metallicFactor": 1,
        "roughnessFactor": 0.25
      }
    }
  ],
  "meshes": [
    {
      "name": "Cylinder_Material.004_0",
      "primitives": [
        {
          "attributes": {
            "NORMAL": 1,
            "POSITION": 0,
            "TEXCOORD_0": 2
          },
          "indices": 3,
          "material": 0,
          "mode": 4
        }
      ]
    },
    {
      "name": "Cylinder_Material.005_0",
      "primitives": [
        {
          "attributes": {
            "NORMAL": 5,
            "POSITION": 4,
            "TEXCOORD_0": 6
          },
          "indices": 7,
          "material": 1,
          "mode": 4
        }
      ]
    },
    {
      "name": "Cylinder.001_Material.003_0",
      "primitives": [
        {
          "attributes": {
            "NORMAL": 9,
            "POSITION": 8,
            "TEXCOORD_0": 10
          },
          "indices": 11,
          "material": 2,
          "mode": 4
        }
      ]
    },
    {
      "name": "Cylinder.002_Material.002_0",
      "primitives": [
        {
          "attributes": {
            "NORMAL": 13,
            "POSITION": 12,
            "TEXCOORD_0": 14
          },
          "indices": 15,
          "material": 3,
          "mode": 4
        }
      ]
    }
  ],
  "nodes": [
    {
      "children": [
        1
      ],
      "name": "RootNode (gltf orientation matrix)",
      "rotation": [
        -0.70710678118654746,
        -0,
        -0,
        0.70710678118654757
      ]
    },
    {
      "children": [
        2
      ],
      "name": "RootNode (model correction matrix)"
    },
    {
      "children": [
        3
      ],
      "matrix": [
        1,
        0,
        0,
        0,
        0,
        0,
        1,
        0,
        0,
        -1,
        0,
        0,
        0,
        0,
        0,
        1
      ],
      "name": "9129d28dee6b4040bf6e257769dd427b.fbx"
    },
    {
      "children": [
        4,
        7,
        9,
        12,
        14
      ],
      "name": "RootNode"
    },
    {
      "children": [
        5
      ],
      "matrix": [
        -29.08647719990347,
        -5.5189064575668629,
        -95.517119101714371,
        0,
        56.639309131094492,
        79.467234285632031,
        -21.839123978419661,
        0,
        77.110087759933748,
        -60.452463565620441,
        -19.988346967737169,
        0,
        407.62454223632812,
        590.38623046875,
        -100.54539489746094,
        1
      ],
      "name": "Light"
    },
    {
      "children": [
        6
      ],
      "matrix": [
        1,
        0,
        0,
        0,
        0,
        2.2204460492503131e-16,
        1,
        0,
        0,
        -1,
        2.2204460492503131e-16,
        0,
        0,
        0,
        0,
        1
      ],
      "name": ""
    },
    {
      "name": ""
    },
    {
      "children": [
        8
      ],
      "matrix": [
        -65.155832803290963,
        -44.527135765708579,
        -61.417030473735487,
        0,
        -32.40134137821245,
        89.539574512336159,
        -30.542088974418615,
        0,
        68.592054721299746,
        -1.0718647115348782e-05,
        -72.767633623962695,
        0,
        735.88916015625,
        495.8309326171875,
        692.5791015625,
        1
      ],
      "name": "Camera"
    },
    {
      "name": ""
    },
    {
      "children": [
        10,
        11
      ],
      "matrix": [
        100,
        0,
        0,
        0,
        0,
        99.999999999999901,
        4.371138828673792e-06,
        0,
        0,
        -4.371138828673792e-06,
        99.999999999999901,
        0,
        -18.836641311645508,
        1.2877407073974609,
        5.1465764045715332,
        1
      ],
      "name": "Cylinder"
    },
    {
      "mesh": 0,
      "name": "Cylinder_Material.004_0"
    },
    {
      "mesh": 1,
      "name": "Cylinder_Material.005_0"
    },
    {
      "children": [
        13
      ],
      "matrix": [
        13.785243034362793,
        0,
        0,
        0,
        0,
        13.785243034362779,
        6.025721109020812e-07,
        0,
        0,
        -6.1333842306393457e-06,
        140.31547546386705,
        0,
        -8.1935291290283203,
        22.833229064941406,
        -17.773153305053711,
        1
      ],
      "name": "Cylinder.001"
    },
    {
      "mesh": 2,
      "name": "Cylinder.001_Material.003_0"
    },
    {
      "children": [
        15
      ],
      "matrix": [
        3.0481908276066075e-06,
        -40.374511718749893,
        0,
        0,
        3.0481908298478431e-06,
        2.2412356259077226e-13,
        -40.374511718749893,
        0,
        40.374511718749773,
        3.0481908298478431e-06,
        3.0481908276066075e-06,
        0,
        -114.55790710449219,
        106.4576416015625,
        1.44925856590271,
        1
      ],
      "name": "Cylinder.002"
    },
    {
      "mesh": 3,
      "name": "Cylinder.002_Material.002_0"
    }
  ],
  "samplers": [
    {
      "magFilter": 9729,
      "minFilter": 9987,
      "wrapS": 10497,
      "wrapT": 10497
    }
  ],
  "scene": 0,
  "scenes": [
    {
      "name": "OSG_Scene",
      "nodes": [
        0
      ]
    }
  ],
  "textures": [
    {
      "sampler": 0,
      "source": 0
    }
  ]
}

