{
  "accessors": [
    {
      "bufferView": 2,
      "componentType": 5126,
      "count": 76,
      "max": [
        0.31499999761581421,
        0.23999994993209839,
        0.42323815822601318
      ],
      "min": [
        -0.31499996781349182,
        -0.26000005006790161,
        -0.062944509088993073
      ],
      "type": "VEC3"
    },
    {
      "bufferView": 2,
      "byteOffset": 912,
      "componentType": 5126,
      "count": 76,
      "max": [
        1,
        1,
        1
      ],
      "min": [
        -1,
        -0.7071070671081543,
        -1
      ],
      "type": "VEC3"
    },
    {
      "bufferView": 3,
      "componentType": 5126,
      "count": 76,
      "max": [
        1,
        1,
        1,
        1
      ],
      "min": [
        -1,
        -1,
        -1,
        1
      ],
      "type": "VEC4"
    },
    {
      "bufferView": 1,
      "componentType": 5126,
      "count": 76,
      "max": [
        0.95382213592529297,
        0.96344512701034546
      ],
      "min": [
        0.0074997954070568085,
        0.0075035989284515381
      ],
      "type": "VEC2"
    },
    {
      "bufferView": 0,
      "componentType": 5125,
      "count": 126,
      "max": [
        75
      ],
      "min": [
        0
      ],
      "type": "SCALAR"
    },
    {
      "bufferView": 2,
      "byteOffset": 1824,
      "componentType": 5126,
      "count": 20,
      "max": [
        0.2460000067949295,
        0.19799999892711639,
        0.015000000596046448
      ],
      "min": [
        -0.2460000067949295,
        -0.19799999892711639,
        -0.015000000596046448
      ],
      "type": "VEC3"
    },
    {
      "bufferView": 2,
      "byteOffset": 2064,
      "componentType": 5126,
      "count": 20,
      "max": [
        1,
        1,
        0
      ],
      "min": [
        -1,
        -1,
        -1
      ],
      "type": "VEC3"
    },
    {
      "bufferView": 3,
      "byteOffset": 1216,
      "componentType": 5126,
      "count": 20,
      "max": [
        0,
        1,
        2.3895074718893738e-07,
        1
      ],
      "min": [
        -1,
        -1,
        -1,
        1
      ],
      "type": "VEC4"
    },
    {
      "bufferView": 1,
      "byteOffset": 608,
      "componentType": 5126,
      "count": 20,
      "max": [
        0.9455341100692749,
        0.96439284086227417
      ],
      "min": [
        0.28173255920410156,
        0.0075071845203638077
      ],
      "type": "VEC2"
    },
    {
      "bufferView": 0,
      "byteOffset": 504,
      "componentType": 5125,
      "count": 30,
      "max": [
        19
      ],
      "min": [
        0
      ],
      "type": "SCALAR"
    },
    {
      "bufferView": 2,
      "byteOffset": 2304,
      "componentType": 5126,
      "count": 40,
      "max": [
        0.27499976754188538,
        -0.19999980926513672,
        0.40130117535591125
      ],
      "min": [
        -0.2749999463558197,
        -0.22000002861022949,
        0.0026799500919878483
      ],
      "type": "VEC3"
    },
    {
      "bufferView": 2,
      "byteOffset": 2784,
      "componentType": 5126,
      "count": 40,
      "max": [
        1,
        0,
        1
      ],
      "min": [
        -1,
        -1,
        -1
      ],
      "type": "VEC3"
    },
    {
      "bufferView": 3,
      "byteOffset": 1536,
      "componentType": 5126,
      "count": 40,
      "max": [
        1,
        1,
        1,
        1
      ],
      "min": [
        -1,
        -1,
        -1,
        1
      ],
      "type": "VEC4"
    },
    {
      "bufferView": 1,
      "byteOffset": 768,
      "componentType": 5126,
      "count": 40,
      "max": [
        0.97828412055969238,
        0.99249553680419922
      ],
      "min": [
        0.0075048585422337055,
        0.0075007863342761993
      ],
      "type": "VEC2"
    },
    {
      "bufferView": 0,
      "byteOffset": 624,
      "componentType": 5125,
      "count": 60,
      "max": [
        39
      ],
      "min": [
        0
      ],
      "type": "SCALAR"
    },
    {
      "bufferView": 2,
      "byteOffset": 3264,
      "componentType": 5126,
      "count": 144,
      "max": [
        0.069654889404773712,
        0.025000002235174179,
        0.2175573855638504
      ],
      "min": [
        -0.069654889404773712,
        -1.5895883498373564e-09,
        -0.0018398074898868799
      ],
      "type": "VEC3"
    },
    {
      "bufferView": 2,
      "byteOffset": 4992,
      "componentType": 5126,
      "count": 144,
      "max": [
        1,
        1,
        1
      ],
      "min": [
        -1,
        -1,
        -1
      ],
      "type": "VEC3"
    },
    {
      "bufferView": 3,
      "byteOffset": 2176,
      "componentType": 5126,
      "count": 144,
      "max": [
        1,
        1,
        1,
        1
      ],
      "min": [
        -1,
        -1,
        -1,
        1
      ],
      "type": "VEC4"
    },
    {
      "bufferView": 1,
      "byteOffset": 1088,
      "componentType": 5126,
      "count": 144,
      "max": [
        0.98872411251068115,
        0.48601636290550232
      ],
      "min": [
        0.48452320694923401,
        0.045027580112218857
      ],
      "type": "VEC2"
    },
    {
      "bufferView": 0,
      "byteOffset": 864,
      "componentType": 5125,
      "count": 288,
      "max": [
        143
      ],
      "min": [
        0
      ],
      "type": "SCALAR"
    },
    {
      "bufferView": 2,
      "byteOffset": 6720,
      "componentType": 5126,
      "count": 25505,
      "max": [
        0.15594625473022461,
        0.14015302062034607,
        0.38289657235145569
      ],
      "min": [
        0.019286341965198517,
        0.13915297389030457,
        0.16638475656509399
      ],
      "type": "VEC3"
    },
    {
      "bufferView": 2,
      "byteOffset": 312780,
      "componentType": 5126,
      "count": 25505,
      "max": [
        0.94060772657394409,
        1,
        0.99999946355819702
      ],
      "min": [
        -0.94060766696929932,
        -1,
        -1
      ],
      "type": "VEC3"
    },
    {
      "bufferView": 3,
      "byteOffset": 4480,
      "componentType": 5126,
      "count": 25505,
      "max": [
        0.99999946355819702,
        1,
        0.66540873050689697,
        1
      ],
      "min": [
        -1,
        -1,
        -0.66393858194351196,
        -1
      ],
      "type": "VEC4"
    },
    {
      "bufferView": 1,
      "byteOffset": 2240,
      "componentType": 5126,
      "count": 25505,
      "max": [
        0.68792164325714111,
        0.93780624866485596
      ],
      "min": [
        0.56897526979446411,
        0.76054185628890991
      ],
      "type": "VEC2"
    },
    {
      "bufferView": 0,
      "byteOffset": 2016,
      "componentType": 5125,
      "count": 42168,
      "max": [
        25504
      ],
      "min": [
        0
      ],
      "type": "SCALAR"
    }
  ],
  "asset": {
    "extras": {
      "author": "Digital_MHC (https://sketchfab.com/Digital_MHC)",
      "license": "CC-BY-4.0 (http://creativecommons.org/licenses/by/4.0/)",
      "source": "https://sketchfab.com/3d-models/bedside-andrea-889d490a0fcb49ad9e9200ef8e370ab5",
      "title": "Bedside Andrea"
    },
    "generator": "Sketchfab-9.13.0",
    "version": "2.0"
  },
  "bufferViews": [
    {
      "buffer": 0,
      "byteLength": 170688,
      "byteOffset": 0,
      "name": "floatBufferViews",
      "target": 34963
    },
    {
      "buffer": 0,
      "byteLength": 206280,
      "byteOffset": 170688,
      "byteStride": 8,
      "name": "floatBufferViews",
      "target": 34962
    },
    {
      "buffer": 0,
      "byteLength": 618840,
      "byteOffset": 376968,
      "byteStride": 12,
      "name": "floatBufferViews",
      "target": 34962
    },
    {
      "buffer": 0,
      "byteLength": 412560,
      "byteOffset": 995808,
      "byteStride": 16,
      "name": "floatBufferViews",
      "target": 34962
    }
  ],
  "buffers": [
    {
      "byteLength": 1408368,
      "uri": "scene.bin"
    }
  ],
  "images": [
    {
      "uri": "textures/Andrea_baseColor.png"
    },
    {
      "uri": "textures/Andrea_metallicRoughness.png"
    },
    {
      "uri": "textures/Andrea_normal.png"
    }
  ],
  "materials": [
    {
      "doubleSided": true,
      "emissiveFactor": [
        0,
        0,
        0
      ],
      "name": "Andrea",
      "normalTexture": {
        "index": 2,
        "scale": 1,
        "texCoord": 0
      },
      "occlusionTexture": {
        "index": 1,
        "strength": 1,
        "texCoord": 0
      },
      "pbrMetallicRoughness": {
        "baseColorFactor": [
          1,
          1,
          1,
          1
        ],
        "baseColorTexture": {
          "index": 0,
          "texCoord": 0
        },
        "metallicFactor": 1,
        "metallicRoughnessTexture": {
          "index": 1,
          "texCoord": 0
        },
        "roughnessFactor": 1
      }
    }
  ],
  "meshes": [
    {
      "name": "1_low_Andrea_0",
      "primitives": [
        {
          "attributes": {
            "NORMAL": 1,
            "POSITION": 0,
            "TANGENT": 2,
            "TEXCOORD_0": 3
          },
          "indices": 4,
          "material": 0,
          "mode": 4
        }
      ]
    },
    {
      "name": "2_low_Andrea_0",
      "primitives": [
        {
          "attributes": {
            "NORMAL": 6,
            "POSITION": 5,
            "TANGENT": 7,
            "TEXCOORD_0": 8
          },
          "indices": 9,
          "material": 0,
          "mode": 4
        }
      ]
    },
    {
      "name": "3_low_Andrea_0",
      "primitives": [
        {
          "attributes": {
            "NORMAL": 11,
            "POSITION": 10,
            "TANGENT": 12,
            "TEXCOORD_0": 13
          },
          "indices": 14,
          "material": 0,
          "mode": 4
        }
      ]
    },
    {
      "name": "4_low_Andrea_0",
      "primitives": [
        {
          "attributes": {
            "NORMAL": 16,
            "POSITION": 15,
            "TANGENT": 17,
            "TEXCOORD_0": 18
          },
          "indices": 19,
          "material": 0,
          "mode": 4
        }
      ]
    },
    {
      "name": "5_low_Andrea_0",
      "primitives": [
        {
          "attributes": {
            "NORMAL": 21,
            "POSITION": 20,
            "TANGENT": 22,
            "TEXCOORD_0": 23
          },
          "indices": 24,
          "material": 0,
          "mode": 4
        }
      ]
    }
  ],
  "nodes": [
    {
      "children": [
        1
      ],
      "name": "RootNode (gltf orientation matrix)",
      "rotation": [
        -0.70710678118654746,
        -0,
        -0,
        0.70710678118654757
      ]
    },
    {
      "children": [
        2
      ],
      "name": "RootNode (model correction matrix)"
    },
    {
      "children": [
        3
      ],
      "matrix": [
        1,
        0,
        0,
        0,
        0,
        0,
        1,
        0,
        0,
        -1,
        0,
        0,
        0,
        0,
        0,
        1
      ],
      "name": "08712632b91e40dfb52d3bde30baa63f.fbx"
    },
    {
      "children": [
        4,
        6,
        8,
        10,
        12
      ],
      "name": "RootNode"
    },
    {
      "children": [
        5
      ],
      "matrix": [
        -99.999999999992411,
        1.2246465878873718e-14,
        -3.894143777553012e-05,
        0,
        -3.8941437775529998e-05,
        7.5497899820753389e-06,
        99.999999999992127,
        0,
        2.9522432265841658e-12,
        99.999999999999702,
        -7.5497899709731087e-06,
        0,
        8.7688837051391602,
        9.3167438507080078,
        10.305929183959961,
        1
      ],
      "name": "1_low"
    },
    {
      "mesh": 0,
      "name": "1_low_Andrea_0"
    },
    {
      "children": [
        7
      ],
      "matrix": [
        -99.999999999992411,
        1.2246465878873718e-14,
        -3.894143777553012e-05,
        0,
        -3.8941437775529998e-05,
        7.5497899820753389e-06,
        99.999999999992127,
        0,
        2.9522432265841658e-12,
        99.999999999999702,
        -7.5497899709731087e-06,
        0,
        8.7266359329223633,
        1.4873826503753662,
        9.9726200103759766,
        1
      ],
      "name": "2_low"
    },
    {
      "mesh": 1,
      "name": "2_low_Andrea_0"
    },
    {
      "children": [
        9
      ],
      "matrix": [
        -99.999999999992411,
        1.2246465878873718e-14,
        -3.894143777553012e-05,
        0,
        -3.8941437775529998e-05,
        7.5497899820753389e-06,
        99.999999999992127,
        0,
        2.9522432265841658e-12,
        99.999999999999702,
        -7.5497899709731087e-06,
        0,
        8.7688837051391602,
        7.235194206237793,
        10.305929183959961,
        1
      ],
      "name": "3_low"
    },
    {
      "mesh": 2,
      "name": "3_low_Andrea_0"
    },
    {
      "children": [
        11
      ],
      "matrix": [
        -99.999999999992411,
        1.2246465878873718e-14,
        -3.894143777553012e-05,
        0,
        -3.8941437775529998e-05,
        7.5497899820753389e-06,
        99.999999999992127,
        0,
        2.9522432265841658e-12,
        99.999999999999702,
        -7.5497899709731087e-06,
        0,
        8.7688837051391602,
        16.692996978759766,
        -14.165258407592773,
        1
      ],
      "name": "4_low"
    },
    {
      "mesh": 3,
      "name": "4_low_Andrea_0"
    },
    {
      "children": [
        13
      ],
      "matrix": [
        100,
        0,
        0,
        0,
        0,
        -1.6292067939183141e-05,
        -99.999999999998678,
        0,
        0,
        99.999999999998678,
        -1.6292067939183141e-05,
        0,
        0,
        0,
        0,
        1
      ],
      "name": "5_low"
    },
    {
      "mesh": 4,
      "name": "5_low_Andrea_0"
    }
  ],
  "samplers": [
    {
      "magFilter": 9729,
      "minFilter": 9987,
      "wrapS": 10497,
      "wrapT": 10497
    }
  ],
  "scene": 0,
  "scenes": [
    {
      "name": "OSG_Scene",
      "nodes": [
        0
      ]
    }
  ],
  "textures": [
    {
      "sampler": 0,
      "source": 0
    },
    {
      "sampler": 0,
      "source": 1
    },
    {
      "sampler": 0,
      "source": 2
    }
  ]
}

