{
  "accessors": [
    {
      "bufferView": 2,
      "componentType": 5126,
      "count": 65532,
      "max": [
        3.6892960071563721,
        10.220903396606445,
        3.6892960071563721
      ],
      "min": [
        -3.6892960071563721,
        -3.6892960071563721,
        -3.6892960071563721
      ],
      "type": "VEC3"
    },
    {
      "bufferView": 2,
      "byteOffset": 786384,
      "componentType": 5126,
      "count": 65532,
      "max": [
        0.99999946355819702,
        0.99999725818634033,
        0.99999946355819702
      ],
      "min": [
        -0.99999946355819702,
        -4.9788034806041992e-10,
        -0.9999995231628418
      ],
      "type": "VEC3"
    },
    {
      "bufferView": 3,
      "componentType": 5126,
      "count": 65532,
      "max": [
        0.99941021203994751,
        1,
        0.99999916553497314,
        1
      ],
      "min": [
        -0.9999997615814209,
        -1,
        -0.99999922513961792,
        -1
      ],
      "type": "VEC4"
    },
    {
      "bufferView": 1,
      "componentType": 5126,
      "count": 65532,
      "max": [
        0.875,
        1
      ],
      "min": [
        0.29167169332504272,
        0
      ],
      "type": "VEC2"
    },
    {
      "bufferView": 0,
      "componentType": 5125,
      "count": 355602,
      "max": [
        65531
      ],
      "min": [
        0
      ],
      "type": "SCALAR"
    },
    {
      "bufferView": 2,
      "byteOffset": 1572768,
      "componentType": 5126,
      "count": 65532,
      "max": [
        3.6892960071563721,
        10.220903396606445,
        3.6892960071563721
      ],
      "min": [
        -3.6892960071563721,
        -3.6892962455749512,
        -3.6892960071563721
      ],
      "type": "VEC3"
    },
    {
      "bufferView": 2,
      "byteOffset": 2359152,
      "componentType": 5126,
      "count": 65532,
      "max": [
        0.99999970197677612,
        0.99999725818634033,
        1
      ],
      "min": [
        -1,
        -1,
        -1
      ],
      "type": "VEC3"
    },
    {
      "bufferView": 3,
      "byteOffset": 1048512,
      "componentType": 5126,
      "count": 65532,
      "max": [
        1,
        1,
        1,
        1
      ],
      "min": [
        -1,
        -1,
        -1,
        -1
      ],
      "type": "VEC4"
    },
    {
      "bufferView": 1,
      "byteOffset": 524256,
      "componentType": 5126,
      "count": 65532,
      "max": [
        0.87475895881652832,
        1
      ],
      "min": [
        0.071692816913127899,
        0
      ],
      "type": "VEC2"
    },
    {
      "bufferView": 0,
      "byteOffset": 1422408,
      "componentType": 5125,
      "count": 346929,
      "max": [
        65531
      ],
      "min": [
        0
      ],
      "type": "SCALAR"
    },
    {
      "bufferView": 2,
      "byteOffset": 3145536,
      "componentType": 5126,
      "count": 51540,
      "max": [
        3.6892960071563721,
        10.220903396606445,
        3.6892960071563721
      ],
      "min": [
        -3.6892960071563721,
        -3.6892962455749512,
        -3.6892960071563721
      ],
      "type": "VEC3"
    },
    {
      "bufferView": 2,
      "byteOffset": 3764016,
      "componentType": 5126,
      "count": 51540,
      "max": [
        1,
        1,
        1
      ],
      "min": [
        -1,
        -1,
        -1
      ],
      "type": "VEC3"
    },
    {
      "bufferView": 3,
      "byteOffset": 2097024,
      "componentType": 5126,
      "count": 51540,
      "max": [
        1,
        1,
        0.99999988079071045,
        1
      ],
      "min": [
        -0.99999880790710449,
        -1,
        -1,
        -1
      ],
      "type": "VEC4"
    },
    {
      "bufferView": 1,
      "byteOffset": 1048512,
      "componentType": 5126,
      "count": 51540,
      "max": [
        0.87091708183288574,
        0.88001513481140137
      ],
      "min": [
        0.071706756949424744,
        0.11807061731815338
      ],
      "type": "VEC2"
    },
    {
      "bufferView": 0,
      "byteOffset": 2810124,
      "componentType": 5125,
      "count": 282549,
      "max": [
        51539
      ],
      "min": [
        0
      ],
      "type": "SCALAR"
    },
    {
      "bufferView": 2,
      "byteOffset": 4382496,
      "componentType": 5126,
      "count": 80,
      "max": [
        3.6453139781951904,
        -3.6892960071563721,
        3.6453139781951904
      ],
      "min": [
        -3.6453139781951904,
        -3.7130255699157715,
        -3.6453139781951904
      ],
      "type": "VEC3"
    },
    {
      "bufferView": 2,
      "byteOffset": 4383456,
      "componentType": 5126,
      "count": 80,
      "max": [
        1,
        0,
        1
      ],
      "min": [
        -1,
        -1,
        -1
      ],
      "type": "VEC3"
    },
    {
      "bufferView": 3,
      "byteOffset": 2921664,
      "componentType": 5126,
      "count": 80,
      "max": [
        0.99989575147628784,
        0,
        0.96153664588928223,
        1
      ],
      "min": [
        0,
        0,
        -0.86224460601806641,
        -1
      ],
      "type": "VEC4"
    },
    {
      "bufferView": 1,
      "byteOffset": 1460832,
      "componentType": 5126,
      "count": 80,
      "max": [
        0.3741644024848938,
        0.74920481443405151
      ],
      "min": [
        0.12970992922782898,
        0.45766744017601013
      ],
      "type": "VEC2"
    },
    {
      "bufferView": 0,
      "byteOffset": 3940320,
      "componentType": 5125,
      "count": 120,
      "max": [
        79
      ],
      "min": [
        0
      ],
      "type": "SCALAR"
    },
    {
      "bufferView": 2,
      "byteOffset": 4384416,
      "componentType": 5126,
      "count": 4662,
      "max": [
        3.5194838047027588,
        10.138425827026367,
        3.5194838047027588
      ],
      "min": [
        -3.5194838047027588,
        -2.4052548408508301,
        -3.5194838047027588
      ],
      "type": "VEC3"
    },
    {
      "bufferView": 2,
      "byteOffset": 4440360,
      "componentType": 5126,
      "count": 4662,
      "max": [
        1,
        0.60829639434814453,
        1
      ],
      "min": [
        -1,
        -3.3001021360057337e-10,
        -1
      ],
      "type": "VEC3"
    },
    {
      "bufferView": 3,
      "byteOffset": 2922944,
      "componentType": 5126,
      "count": 4662,
      "max": [
        1,
        0.24119938910007477,
        0.99998080730438232,
        1
      ],
      "min": [
        -1,
        -0.6109243631362915,
        -1,
        -1
      ],
      "type": "VEC4"
    },
    {
      "bufferView": 1,
      "byteOffset": 1461472,
      "componentType": 5126,
      "count": 4662,
      "max": [
        0.86238080263137817,
        0.80642259120941162
      ],
      "min": [
        0.62828874588012695,
        0.32083046436309814
      ],
      "type": "VEC2"
    },
    {
      "bufferView": 0,
      "byteOffset": 3940800,
      "componentType": 5125,
      "count": 7272,
      "max": [
        4661
      ],
      "min": [
        0
      ],
      "type": "SCALAR"
    },
    {
      "bufferView": 2,
      "byteOffset": 4496304,
      "componentType": 5126,
      "count": 808,
      "max": [
        3.4309444427490234,
        -3.1356806755065918,
        3.4309444427490234
      ],
      "min": [
        -3.4309444427490234,
        -3.2435078620910645,
        -3.4309444427490234
      ],
      "type": "VEC3"
    },
    {
      "bufferView": 2,
      "byteOffset": 4506000,
      "componentType": 5126,
      "count": 808,
      "max": [
        9.2725883860111935e-08,
        1,
        -0
      ],
      "min": [
        3.4560461159571787e-08,
        -1,
        -0
      ],
      "type": "VEC3"
    },
    {
      "bufferView": 3,
      "byteOffset": 2997536,
      "componentType": 5126,
      "count": 808,
      "max": [
        0.99999982118606567,
        9.272586964925722e-08,
        0.9999881386756897,
        1
      ],
      "min": [
        -0.99999821186065674,
        -5.2388742233233643e-08,
        -1,
        -1
      ],
      "type": "VEC4"
    },
    {
      "bufferView": 1,
      "byteOffset": 1498768,
      "componentType": 5126,
      "count": 808,
      "max": [
        0.85703295469284058,
        0.79871290922164917
      ],
      "min": [
        0.18286141753196716,
        0.3296419084072113
      ],
      "type": "VEC2"
    },
    {
      "bufferView": 0,
      "byteOffset": 3969888,
      "componentType": 5125,
      "count": 2412,
      "max": [
        807
      ],
      "min": [
        0
      ],
      "type": "SCALAR"
    }
  ],
  "asset": {
    "extras": {
      "author": "LerGer (https://sketchfab.com/LerGer)",
      "license": "CC-BY-4.0 (http://creativecommons.org/licenses/by/4.0/)",
      "source": "https://sketchfab.com/3d-models/trash-bin-96c6c18cff6b4e1abcdf9f85cb8c690d",
      "title": "Trash bin"
    },
    "generator": "Sketchfab-7.27.0",
    "version": "2.0"
  },
  "bufferViews": [
    {
      "buffer": 0,
      "byteLength": 3979536,
      "byteOffset": 0,
      "name": "floatBufferViews",
      "target": 34963
    },
    {
      "buffer": 0,
      "byteLength": 1505232,
      "byteOffset": 3979536,
      "byteStride": 8,
      "name": "floatBufferViews",
      "target": 34962
    },
    {
      "buffer": 0,
      "byteLength": 4515696,
      "byteOffset": 5484768,
      "byteStride": 12,
      "name": "floatBufferViews",
      "target": 34962
    },
    {
      "buffer": 0,
      "byteLength": 3010464,
      "byteOffset": 10000464,
      "byteStride": 16,
      "name": "floatBufferViews",
      "target": 34962
    }
  ],
  "buffers": [
    {
      "byteLength": 13010928,
      "uri": "scene.bin"
    }
  ],
  "materials": [
    {
      "doubleSided": true,
      "emissiveFactor": [
        0,
        0,
        0
      ],
      "name": "Material",
      "pbrMetallicRoughness": {
        "baseColorFactor": [
          0.69819200000000003,
          0.69819200000000003,
          0.69819200000000003,
          1
        ],
        "metallicFactor": 1,
        "roughnessFactor": 0.221557
      }
    },
    {
      "doubleSided": true,
      "emissiveFactor": [
        0,
        0,
        0
      ],
      "name": "Material.001",
      "pbrMetallicRoughness": {
        "baseColorFactor": [
          0.0110875,
          0.0110875,
          0.0110875,
          1
        ],
        "metallicFactor": 0.095808400000000002,
        "roughnessFactor": 0.5
      }
    },
    {
      "doubleSided": true,
      "emissiveFactor": [
        0,
        0,
        0
      ],
      "name": "Material.002",
      "pbrMetallicRoughness": {
        "baseColorFactor": [
          0,
          0,
          0,
          1
        ],
        "metallicFactor": 0,
        "roughnessFactor": 0.404192
      }
    },
    {
      "doubleSided": true,
      "emissiveFactor": [
        0,
        0,
        0
      ],
      "name": "Material.003",
      "pbrMetallicRoughness": {
        "baseColorFactor": [
          0.094626000000000002,
          0.094626000000000002,
          0.094626000000000002,
          1
        ],
        "metallicFactor": 0,
        "roughnessFactor": 0.5
      }
    }
  ],
  "meshes": [
    {
      "primitives": [
        {
          "attributes": {
            "NORMAL": 1,
            "POSITION": 0,
            "TANGENT": 2,
            "TEXCOORD_0": 3
          },
          "indices": 4,
          "material": 0,
          "mode": 4
        }
      ]
    },
    {
      "primitives": [
        {
          "attributes": {
            "NORMAL": 6,
            "POSITION": 5,
            "TANGENT": 7,
            "TEXCOORD_0": 8
          },
          "indices": 9,
          "material": 0,
          "mode": 4
        }
      ]
    },
    {
      "primitives": [
        {
          "attributes": {
            "NORMAL": 11,
            "POSITION": 10,
            "TANGENT": 12,
            "TEXCOORD_0": 13
          },
          "indices": 14,
          "material": 0,
          "mode": 4
        }
      ]
    },
    {
      "primitives": [
        {
          "attributes": {
            "NORMAL": 16,
            "POSITION": 15,
            "TANGENT": 17,
            "TEXCOORD_0": 18
          },
          "indices": 19,
          "material": 1,
          "mode": 4
        }
      ]
    },
    {
      "primitives": [
        {
          "attributes": {
            "NORMAL": 21,
            "POSITION": 20,
            "TANGENT": 22,
            "TEXCOORD_0": 23
          },
          "indices": 24,
          "material": 2,
          "mode": 4
        }
      ]
    },
    {
      "primitives": [
        {
          "attributes": {
            "NORMAL": 26,
            "POSITION": 25,
            "TANGENT": 27,
            "TEXCOORD_0": 28
          },
          "indices": 29,
          "material": 3,
          "mode": 4
        }
      ]
    }
  ],
  "nodes": [
    {
      "children": [
        1
      ],
      "name": "RootNode (gltf orientation matrix)",
      "rotation": [
        -0.70710678118654746,
        -0,
        -0,
        0.70710678118654757
      ]
    },
    {
      "children": [
        2
      ],
      "name": "RootNode (model correction matrix)"
    },
    {
      "children": [
        3
      ],
      "name": "root"
    },
    {
      "children": [
        4
      ],
      "matrix": [
        1,
        0,
        0,
        0,
        0,
        2.2204460492503131e-16,
        1,
        0,
        0,
        -1,
        2.2204460492503131e-16,
        0,
        0,
        0,
        0,
        1
      ],
      "name": "GLTF_SceneRootNode"
    },
    {
      "children": [
        5,
        6,
        7,
        8,
        9,
        10
      ],
      "name": "Cube_0"
    },
    {
      "mesh": 0,
      "name": ""
    },
    {
      "mesh": 1,
      "name": ""
    },
    {
      "mesh": 2,
      "name": ""
    },
    {
      "mesh": 3,
      "name": ""
    },
    {
      "mesh": 4,
      "name": ""
    },
    {
      "mesh": 5,
      "name": ""
    }
  ],
  "scene": 0,
  "scenes": [
    {
      "name": "OSG_Scene",
      "nodes": [
        0
      ]
    }
  ]
}

