{
  "accessors": [
    {
      "bufferView": 2,
      "componentType": 5126,
      "count": 1644,
      "max": [
        0.35063496232032776,
        0.53295063972473145,
        0.35063493251800537
      ],
      "min": [
        -0.35063523054122925,
        -0.015729872509837151,
        -0.35063523054122925
      ],
      "type": "VEC3"
    },
    {
      "bufferView": 2,
      "byteOffset": 19728,
      "componentType": 5126,
      "count": 1644,
      "max": [
        0.99921989440917969,
        1,
        0.99922120571136475
      ],
      "min": [
        -0.99922120571136475,
        -1,
        -0.99922120571136475
      ],
      "type": "VEC3"
    },
    {
      "bufferView": 1,
      "componentType": 5126,
      "count": 1644,
      "max": [
        1.0000001192092896,
        1.0000001192092896
      ],
      "min": [
        0,
        0.017400545999407768
      ],
      "type": "VEC2"
    },
    {
      "bufferView": 0,
      "componentType": 5125,
      "count": 4800,
      "max": [
        1643
      ],
      "min": [
        0
      ],
      "type": "SCALAR"
    },
    {
      "bufferView": 2,
      "byteOffset": 39456,
      "componentType": 5126,
      "count": 730,
      "max": [
        0.30560767650604248,
        0.48405259847640991,
        0.30560734868049622
      ],
      "min": [
        -0.3056073784828186,
        0.46106010675430298,
        -0.30560770630836487
      ],
      "type": "VEC3"
    },
    {
      "bufferView": 2,
      "byteOffset": 48216,
      "componentType": 5126,
      "count": 730,
      "max": [
        0.96500849723815918,
        1,
        0.96500849723815918
      ],
      "min": [
        -0.96500849723815918,
        0.26221686601638794,
        -0.96500849723815918
      ],
      "type": "VEC3"
    },
    {
      "bufferView": 1,
      "byteOffset": 13152,
      "componentType": 5126,
      "count": 730,
      "max": [
        1.0000001192092896,
        1.0000001192092896
      ],
      "min": [
        0,
        0.013428272679448128
      ],
      "type": "VEC2"
    },
    {
      "bufferView": 0,
      "byteOffset": 19200,
      "componentType": 5125,
      "count": 1728,
      "max": [
        729
      ],
      "min": [
        0
      ],
      "type": "SCALAR"
    },
    {
      "bufferView": 2,
      "byteOffset": 56976,
      "componentType": 5126,
      "count": 53085,
      "max": [
        0.86843204498291016,
        4.7707700729370117,
        0.82247662544250488
      ],
      "min": [
        -0.80570751428604126,
        0.36610138416290283,
        -0.80166870355606079
      ],
      "type": "VEC3"
    },
    {
      "bufferView": 2,
      "byteOffset": 693996,
      "componentType": 5126,
      "count": 53085,
      "max": [
        0.99974954128265381,
        0.99996161460876465,
        0.99998795986175537
      ],
      "min": [
        -0.99985742568969727,
        -0.999991774559021,
        -0.99976229667663574
      ],
      "type": "VEC3"
    },
    {
      "bufferView": 1,
      "byteOffset": 18992,
      "componentType": 5126,
      "count": 53085,
      "max": [
        0.65559482574462891,
        1.0000001192092896
      ],
      "min": [
        0.375,
        0
      ],
      "type": "VEC2"
    },
    {
      "bufferView": 0,
      "byteOffset": 26112,
      "componentType": 5125,
      "count": 189888,
      "max": [
        53084
      ],
      "min": [
        0
      ],
      "type": "SCALAR"
    },
    {
      "bufferView": 2,
      "byteOffset": 1331016,
      "componentType": 5126,
      "count": 13264,
      "max": [
        0.33676868677139282,
        0.54484659433364868,
        0.32468628883361816
      ],
      "min": [
        -0.33454108238220215,
        0.44296899437904358,
        -0.32799437642097473
      ],
      "type": "VEC3"
    },
    {
      "bufferView": 2,
      "byteOffset": 1490184,
      "componentType": 5126,
      "count": 13264,
      "max": [
        0.99969947338104248,
        0.99994111061096191,
        0.99950182437896729
      ],
      "min": [
        -0.99950540065765381,
        -0.99999356269836426,
        -0.99969780445098877
      ],
      "type": "VEC3"
    },
    {
      "bufferView": 1,
      "byteOffset": 443672,
      "componentType": 5126,
      "count": 13264,
      "max": [
        0.875,
        1
      ],
      "min": [
        0.125,
        0
      ],
      "type": "VEC2"
    },
    {
      "bufferView": 0,
      "byteOffset": 785664,
      "componentType": 5125,
      "count": 25488,
      "max": [
        13263
      ],
      "min": [
        0
      ],
      "type": "SCALAR"
    }
  ],
  "asset": {
    "extras": {
      "author": "VIS-All-3D (https://sketchfab.com/VIS-All)",
      "license": "CC-BY-4.0 (http://creativecommons.org/licenses/by/4.0/)",
      "source": "https://sketchfab.com/3d-models/office-plant-1-3c28dc89b31d43ed82dab16b33dbd182",
      "title": "Office Plant 1"
    },
    "generator": "Sketchfab-9.55.1",
    "version": "2.0"
  },
  "bufferViews": [
    {
      "buffer": 0,
      "byteLength": 887616,
      "byteOffset": 0,
      "name": "floatBufferViews",
      "target": 34963
    },
    {
      "buffer": 0,
      "byteLength": 549784,
      "byteOffset": 887616,
      "byteStride": 8,
      "name": "floatBufferViews",
      "target": 34962
    },
    {
      "buffer": 0,
      "byteLength": 1649352,
      "byteOffset": 1437400,
      "byteStride": 12,
      "name": "floatBufferViews",
      "target": 34962
    }
  ],
  "buffers": [
    {
      "byteLength": 3086752,
      "uri": "scene.bin"
    }
  ],
  "materials": [
    {
      "doubleSided": true,
      "emissiveFactor": [
        0,
        0,
        0
      ],
      "name": "material",
      "pbrMetallicRoughness": {
        "baseColorFactor": [
          0.073235700000000015,
          0.022597900000000001,
          0.0094459700000000049,
          1
        ],
        "metallicFactor": 0,
        "roughnessFactor": 0.79839467352171278
      }
    },
    {
      "doubleSided": true,
      "emissiveFactor": [
        0,
        0,
        0
      ],
      "name": "Material.001",
      "pbrMetallicRoughness": {
        "baseColorFactor": [
          0.0048956499999999997,
          0.0019980699999999998,
          0.0015789700000000001,
          1
        ],
        "metallicFactor": 0,
        "roughnessFactor": 0.5
      }
    },
    {
      "doubleSided": true,
      "emissiveFactor": [
        0,
        0,
        0
      ],
      "name": "Green_Plant",
      "pbrMetallicRoughness": {
        "baseColorFactor": [
          0.076094400000000006,
          0.17335500000000001,
          0.034467499999999998,
          1
        ],
        "metallicFactor": 0.031448822333555441,
        "roughnessFactor": 0.86535026370480583
      }
    },
    {
      "doubleSided": true,
      "emissiveFactor": [
        0,
        0,
        0
      ],
      "name": "Material.002",
      "pbrMetallicRoughness": {
        "baseColorFactor": [
          0.031063799999999996,
          0.021517499999999981,
          0.0091487899999999987,
          1
        ],
        "metallicFactor": 0,
        "roughnessFactor": 0.5
      }
    }
  ],
  "meshes": [
    {
      "primitives": [
        {
          "attributes": {
            "NORMAL": 1,
            "POSITION": 0,
            "TEXCOORD_0": 2
          },
          "indices": 3,
          "material": 0,
          "mode": 4
        }
      ]
    },
    {
      "primitives": [
        {
          "attributes": {
            "NORMAL": 5,
            "POSITION": 4,
            "TEXCOORD_0": 6
          },
          "indices": 7,
          "material": 1,
          "mode": 4
        }
      ]
    },
    {
      "primitives": [
        {
          "attributes": {
            "NORMAL": 9,
            "POSITION": 8,
            "TEXCOORD_0": 10
          },
          "indices": 11,
          "material": 2,
          "mode": 4
        }
      ]
    },
    {
      "primitives": [
        {
          "attributes": {
            "NORMAL": 13,
            "POSITION": 12,
            "TEXCOORD_0": 14
          },
          "indices": 15,
          "material": 3,
          "mode": 4
        }
      ]
    }
  ],
  "nodes": [
    {
      "children": [
        1
      ],
      "name": "RootNode (gltf orientation matrix)",
      "rotation": [
        -0.70710678118654746,
        -0,
        -0,
        0.70710678118654757
      ]
    },
    {
      "children": [
        2
      ],
      "matrix": [
        0.47330248355865479,
        0,
        0,
        0,
        0,
        0.47330248355865479,
        0,
        0,
        0,
        0,
        0.47330248355865479,
        0,
        0,
        0,
        0,
        1
      ],
      "name": "RootNode (model correction matrix)"
    },
    {
      "children": [
        3
      ],
      "name": "root"
    },
    {
      "children": [
        4
      ],
      "matrix": [
        1,
        0,
        0,
        0,
        0,
        2.2204460492503131e-16,
        1,
        0,
        0,
        -1,
        2.2204460492503131e-16,
        0,
        0,
        0,
        0,
        1
      ],
      "name": "GLTF_SceneRootNode"
    },
    {
      "children": [
        5,
        6,
        7,
        8
      ],
      "name": "Office Plant_0"
    },
    {
      "mesh": 0,
      "name": ""
    },
    {
      "mesh": 1,
      "name": ""
    },
    {
      "mesh": 2,
      "name": ""
    },
    {
      "mesh": 3,
      "name": ""
    }
  ],
  "scene": 0,
  "scenes": [
    {
      "name": "OSG_Scene",
      "nodes": [
        0
      ]
    }
  ]
}

