{
  "accessors": [
    {
      "bufferView": 2,
      "componentType": 5126,
      "count": 15092,
      "max": [
        1,
        0.50382518768310547,
        3.3296093940734863
      ],
      "min": [
        -1,
        -1.0299862623214722,
        -0.029999986290931702
      ],
      "type": "VEC3"
    },
    {
      "bufferView": 2,
      "byteOffset": 181104,
      "componentType": 5126,
      "count": 15092,
      "max": [
        1,
        0.99992358684539795,
        1
      ],
      "min": [
        -1,
        -0.99560308456420898,
        -0.99562537670135498
      ],
      "type": "VEC3"
    },
    {
      "bufferView": 1,
      "componentType": 5126,
      "count": 15092,
      "max": [
        1.0000001192092896,
        1.0000001192092896
      ],
      "min": [
        0,
        0
      ],
      "type": "VEC2"
    },
    {
      "bufferView": 0,
      "componentType": 5125,
      "count": 73386,
      "max": [
        15091
      ],
      "min": [
        0
      ],
      "type": "SCALAR"
    }
  ],
  "asset": {
    "extras": {
      "author": "MakishiPrime (https://sketchfab.com/MakishiPrime)",
      "license": "CC-BY-4.0 (http://creativecommons.org/licenses/by/4.0/)",
      "source": "https://sketchfab.com/3d-models/modern-chair-7a326614af3a482ca5e7f7d45f3d9e02",
      "title": "modern chair"
    },
    "generator": "Sketchfab-9.62.3",
    "version": "2.0"
  },
  "bufferViews": [
    {
      "buffer": 0,
      "byteLength": 293544,
      "byteOffset": 0,
      "name": "floatBufferViews",
      "target": 34963
    },
    {
      "buffer": 0,
      "byteLength": 120736,
      "byteOffset": 293544,
      "byteStride": 8,
      "name": "floatBufferViews",
      "target": 34962
    },
    {
      "buffer": 0,
      "byteLength": 362208,
      "byteOffset": 414280,
      "byteStride": 12,
      "name": "floatBufferViews",
      "target": 34962
    }
  ],
  "buffers": [
    {
      "byteLength": 776488,
      "uri": "scene.bin"
    }
  ],
  "materials": [
    {
      "doubleSided": true,
      "emissiveFactor": [
        0,
        0,
        0
      ],
      "name": "Material.001",
      "pbrMetallicRoughness": {
        "baseColorFactor": [
          0.061542100000000002,
          0.034328999999999998,
          0.018175799999999999,
          1
        ],
        "metallicFactor": 0,
        "roughnessFactor": 0.99378600964573593
      }
    }
  ],
  "meshes": [
    {
      "name": "Plane_Material.001_0",
      "primitives": [
        {
          "attributes": {
            "NORMAL": 1,
            "POSITION": 0,
            "TEXCOORD_0": 2
          },
          "indices": 3,
          "material": 0,
          "mode": 4
        }
      ]
    }
  ],
  "nodes": [
    {
      "children": [
        1
      ],
      "name": "RootNode (gltf orientation matrix)",
      "rotation": [
        -0.70710678118654746,
        -0,
        -0,
        0.70710678118654757
      ]
    },
    {
      "children": [
        2
      ],
      "name": "RootNode (model correction matrix)"
    },
    {
      "children": [
        3
      ],
      "matrix": [
        1,
        0,
        0,
        0,
        0,
        0,
        1,
        0,
        0,
        -1,
        0,
        0,
        0,
        0,
        0,
        1
      ],
      "name": "999c6c5762fa448fb18868767bd1b2f7.fbx"
    },
    {
      "children": [
        4,
        6
      ],
      "name": "RootNode"
    },
    {
      "children": [
        5
      ],
      "matrix": [
        83.457931518554688,
        0,
        0,
        0,
        0,
        -1.6292067939183141e-05,
        -99.999999999998678,
        0,
        0,
        99.999999999998678,
        -1.6292067939183141e-05,
        0,
        0,
        0,
        0,
        1
      ],
      "name": "Plane"
    },
    {
      "mesh": 0,
      "name": "Plane_Material.001_0"
    },
    {
      "children": [
        7
      ],
      "matrix": [
        100,
        -8.6353877389497994e-15,
        -1.7479664721476591e-15,
        0,
        8.6353877894614294e-15,
        92.127860300159185,
        38.890324715979844,
        0,
        -1.7479662226076712e-15,
        -38.890324715979844,
        92.127860300159185,
        0,
        7.631522231646079e-14,
        343.69320678710938,
        127.92697143554688,
        1
      ],
      "name": "Point"
    },
    {
      "children": [
        8
      ],
      "matrix": [
        1,
        0,
        0,
        0,
        0,
        2.2204460492503131e-16,
        1,
        0,
        0,
        -1,
        2.2204460492503131e-16,
        0,
        0,
        0,
        0,
        1
      ],
      "name": ""
    },
    {
      "name": ""
    }
  ],
  "scene": 0,
  "scenes": [
    {
      "name": "OSG_Scene",
      "nodes": [
        0
      ]
    }
  ]
}

